<?xml version="1.0" encoding="ISO-8859-1" standalone="no"?>
<!DOCTYPE svg PUBLIC "-//W3C//DTD SVG 1.1//EN" "http://www.w3.org/Graphics/SVG/1.1/DTD/svg11.dtd">
<svg version="1.1" baseProfile="full" id="body" width="8in" height="8in" viewBox="0 0 1 1" preserveAspectRatio="none" xmlns="http://www.w3.org/2000/svg" xmlns:xlink="http://www.w3.org/1999/xlink" xmlns:ev="http://www.w3.org/2001/xml-events">
<title>SVG drawing</title>
<desc>This was produced by version 4.4 of GNU libplot, a free library for exporting 2-D vector graphics.</desc>
<rect id="background" x="0" y="0" width="1" height="1" stroke="none" fill="white"/>
<g id="content" transform="translate(0.16563,0.14062) scale(1,-1) scale(0.125) " xml:space="preserve" stroke="black" stroke-linecap="butt" stroke-linejoin="miter" stroke-miterlimit="10.433" stroke-dasharray="none" stroke-dashoffset="0" stroke-opacity="1" fill="none" fill-rule="evenodd" fill-opacity="1" font-style="normal" font-variant="normal" font-weight="normal" font-stretch="normal" font-size-adjust="none" letter-spacing="normal" word-spacing="normal" text-anchor="start">
<circle cx="0.15" cy="0.19" r="0.06" stroke-width="0.0094118" />
<line x1="0.15" y1="0.13" x2="0.15" y2="0.01" stroke-width="0.0094118" />
<line x1="0" y1="0.11" x2="0.3" y2="0.11" stroke-width="0.0094118" />
<line x1="0.15" y1="0.01" x2="0.07" y2="-0.14" stroke-width="0.0094118" />
<line x1="0.15" y1="0.01" x2="0.23" y2="-0.14" stroke-width="0.0094118" />
<text transform="translate(-0.054514,-0.29903) scale(1,-1) scale(0.0069444) " font-family="Helvetica,sans-serif" font-size="20px" stroke="none" fill="black" >User 1</text>
<circle cx="0.95" cy="0.19" r="0.06" stroke-width="0.0094118" />
<line x1="0.95" y1="0.13" x2="0.95" y2="0.01" stroke-width="0.0094118" />
<line x1="0.8" y1="0.11" x2="1.1" y2="0.11" stroke-width="0.0094118" />
<line x1="0.95" y1="0.01" x2="0.87" y2="-0.14" stroke-width="0.0094118" />
<line x1="0.95" y1="0.01" x2="1.03" y2="-0.14" stroke-width="0.0094118" />
<text transform="translate(0.74549,-0.29903) scale(1,-1) scale(0.0069444) " font-family="Helvetica,sans-serif" font-size="20px" stroke="none" fill="black" >User 2</text>
<rect x="1.6" y="-0.15" width="0.75" height="0.3" stroke-width="0.0094118" />
<text transform="translate(1.6933,-0.049028) scale(1,-1) scale(0.0069444) " font-family="Helvetica,sans-serif" font-size="20px" stroke="none" fill="black" >Eclipse 1</text>
<line x1="1.7" y1="-0.07" x2="2.25" y2="-0.07" stroke-width="0.0094118" />
<rect x="2.85" y="-0.15" width="0.75" height="0.3" stroke-width="0.0094118" />
<text transform="translate(2.9433,-0.049028) scale(1,-1) scale(0.0069444) " font-family="Helvetica,sans-serif" font-size="20px" stroke="none" fill="black" >Eclipse 2</text>
<line x1="2.95" y1="-0.07" x2="3.5" y2="-0.07" stroke-width="0.0094118" />
<rect x="4.1" y="-0.15" width="0.75" height="0.3" stroke-width="0.0094118" />
<text transform="translate(4.0968,-0.049028) scale(1,-1) scale(0.0069444) " font-family="Helvetica,sans-serif" font-size="20px" stroke="none" fill="black" >NodeJS WS</text>
<line x1="4.2" y1="-0.07" x2="4.75" y2="-0.07" stroke-width="0.0094118" />
<line x1="2.035" y1="-0.5" x2="4.415" y2="-0.5" stroke-width="0.0094118" />
<polygon points="4.315,-0.475 4.415,-0.5 4.315,-0.525 " stroke-width="0.0094118" fill="black" />
<text transform="translate(2.6808,-0.46569) scale(1,-1) scale(0.0069444) " font-family="Helvetica,sans-serif" font-size="20px" stroke="none" fill="black" >projectConnected</text>
<text transform="translate(3.2057,-0.63236) scale(1,-1) scale(0.0069444) " font-family="Helvetica,sans-serif" font-size="20px" stroke="none" fill="black" > </text>
<line x1="3.285" y1="-0.75" x2="4.415" y2="-0.75" stroke-width="0.0094118" />
<polygon points="4.315,-0.725 4.415,-0.75 4.315,-0.775 " stroke-width="0.0094118" fill="black" />
<text transform="translate(3.3058,-0.71569) scale(1,-1) scale(0.0069444) " font-family="Helvetica,sans-serif" font-size="20px" stroke="none" fill="black" >projectConnected</text>
<text transform="translate(3.8307,-0.88236) scale(1,-1) scale(0.0069444) " font-family="Helvetica,sans-serif" font-size="20px" stroke="none" fill="black" > </text>
<line x1="4.415" y1="-1" x2="2.035" y2="-1" stroke-width="0.0094118" />
<polygon points="2.135,-1.025 2.035,-1 2.135,-0.975 " stroke-width="0.0094118" fill="black" />
<text transform="translate(2.6808,-0.96569) scale(1,-1) scale(0.0069444) " font-family="Helvetica,sans-serif" font-size="20px" stroke="none" fill="black" >projectConnected</text>
<text transform="translate(3.2057,-1.1324) scale(1,-1) scale(0.0069444) " font-family="Helvetica,sans-serif" font-size="20px" stroke="none" fill="black" > </text>
<line x1="4.415" y1="-1.25" x2="3.285" y2="-1.25" stroke-width="0.0094118" />
<polygon points="3.385,-1.275 3.285,-1.25 3.385,-1.225 " stroke-width="0.0094118" fill="black" />
<text transform="translate(3.3058,-1.2157) scale(1,-1) scale(0.0069444) " font-family="Helvetica,sans-serif" font-size="20px" stroke="none" fill="black" >projectConnected</text>
<text transform="translate(3.8307,-1.3824) scale(1,-1) scale(0.0069444) " font-family="Helvetica,sans-serif" font-size="20px" stroke="none" fill="black" > </text>
<line x1="1.975" y1="-0.15" x2="1.975" y2="-1.25" stroke-width="0.0094118" stroke-dasharray="0.05, 0.05" />
<line x1="1.925" y1="-1.25" x2="2.025" y2="-1.25" stroke-width="0.0094118" />
<line x1="0.21" y1="-1.75" x2="1.915" y2="-1.75" stroke-width="0.0094118" />
<polygon points="1.815,-1.725 1.915,-1.75 1.815,-1.775 " stroke-width="0.0094118" fill="black" />
<text transform="translate(0.71132,-1.7157) scale(1,-1) scale(0.0069444) " font-family="Helvetica,sans-serif" font-size="20px" stroke="none" fill="black" >modify file1</text>
<text transform="translate(1.0432,-1.8824) scale(1,-1) scale(0.0069444) " font-family="Helvetica,sans-serif" font-size="20px" stroke="none" fill="black" > </text>
<line x1="4.475" y1="-0.15" x2="4.475" y2="-1.75" stroke-width="0.0094118" stroke-dasharray="0.05, 0.05" />
<line x1="4.425" y1="-1.75" x2="4.525" y2="-1.75" stroke-width="0.0094118" />
<line x1="2.035" y1="-2" x2="4.415" y2="-2" stroke-width="0.0094118" />
<polygon points="4.315,-1.975 4.415,-2 4.315,-2.025 " stroke-width="0.0094118" fill="black" />
<text transform="translate(2.4994,-1.9657) scale(1,-1) scale(0.0069444) " font-family="Helvetica,sans-serif" font-size="20px" stroke="none" fill="black" >resourceChanged(file1)</text>
<text transform="translate(3.2057,-2.1324) scale(1,-1) scale(0.0069444) " font-family="Helvetica,sans-serif" font-size="20px" stroke="none" fill="black" > </text>
<line x1="3.225" y1="-0.15" x2="3.225" y2="-2.25" stroke-width="0.0094118" stroke-dasharray="0.05, 0.05" />
<line x1="3.175" y1="-2.25" x2="3.275" y2="-2.25" stroke-width="0.0094118" />
<line x1="4.415" y1="-2.5" x2="3.285" y2="-2.5" stroke-width="0.0094118" />
<polygon points="3.385,-2.525 3.285,-2.5 3.385,-2.475 " stroke-width="0.0094118" fill="black" />
<text transform="translate(3.1244,-2.4657) scale(1,-1) scale(0.0069444) " font-family="Helvetica,sans-serif" font-size="20px" stroke="none" fill="black" >resourceChanged(file1)</text>
<text transform="translate(3.8307,-2.6324) scale(1,-1) scale(0.0069444) " font-family="Helvetica,sans-serif" font-size="20px" stroke="none" fill="black" > </text>
<line x1="2.035" y1="-2.75" x2="4.415" y2="-2.75" stroke-width="0.0094118" />
<polygon points="4.315,-2.725 4.415,-2.75 4.315,-2.775 " stroke-width="0.0094118" fill="black" />
<text transform="translate(2.5767,-2.7157) scale(1,-1) scale(0.0069444) " font-family="Helvetica,sans-serif" font-size="20px" stroke="none" fill="black" >resourceStored(file1)</text>
<text transform="translate(3.2057,-2.8824) scale(1,-1) scale(0.0069444) " font-family="Helvetica,sans-serif" font-size="20px" stroke="none" fill="black" > </text>
<line x1="4.415" y1="-3" x2="3.285" y2="-3" stroke-width="0.0094118" />
<polygon points="3.385,-3.025 3.285,-3 3.385,-2.975 " stroke-width="0.0094118" fill="black" />
<text transform="translate(3.2017,-2.9657) scale(1,-1) scale(0.0069444) " font-family="Helvetica,sans-serif" font-size="20px" stroke="none" fill="black" >resourceStored(file1)</text>
<text transform="translate(3.8307,-3.1324) scale(1,-1) scale(0.0069444) " font-family="Helvetica,sans-serif" font-size="20px" stroke="none" fill="black" > </text>
<line x1="4.425" y1="-1.75" x2="4.425" y2="-3.25" stroke-width="0.0094118" />
<line x1="4.525" y1="-1.75" x2="4.525" y2="-3.25" stroke-width="0.0094118" />
<line x1="4.425" y1="-3.25" x2="4.525" y2="-3.25" stroke-width="0.0094118" />
<line x1="1.925" y1="-1.25" x2="1.925" y2="-3.25" stroke-width="0.0094118" />
<line x1="2.025" y1="-1.25" x2="2.025" y2="-3.25" stroke-width="0.0094118" />
<line x1="1.925" y1="-3.25" x2="2.025" y2="-3.25" stroke-width="0.0094118" />
<line x1="4.475" y1="-3.25" x2="4.475" y2="-3.5" stroke-width="0.0094118" stroke-dasharray="0.05, 0.05" />
<line x1="4.425" y1="-3.5" x2="4.525" y2="-3.5" stroke-width="0.0094118" />
<line x1="1.975" y1="-3.25" x2="1.975" y2="-3.5" stroke-width="0.0094118" stroke-dasharray="0.05, 0.05" />
<line x1="1.925" y1="-3.5" x2="2.025" y2="-3.5" stroke-width="0.0094118" />
<line x1="3.285" y1="-3.75" x2="4.415" y2="-3.75" stroke-width="0.0094118" />
<polygon points="4.315,-3.725 4.415,-3.75 4.315,-3.775 " stroke-width="0.0094118" fill="black" />
<text transform="translate(3.0241,-3.7157) scale(1,-1) scale(0.0069444) " font-family="Helvetica,sans-serif" font-size="20px" stroke="none" fill="black" >getResourceRequest(file1)</text>
<text transform="translate(3.8307,-3.8824) scale(1,-1) scale(0.0069444) " font-family="Helvetica,sans-serif" font-size="20px" stroke="none" fill="black" > </text>
<line x1="4.415" y1="-4" x2="2.035" y2="-4" stroke-width="0.0094118" />
<polygon points="2.135,-4.025 2.035,-4 2.135,-3.975 " stroke-width="0.0094118" fill="black" />
<text transform="translate(2.3991,-3.9657) scale(1,-1) scale(0.0069444) " font-family="Helvetica,sans-serif" font-size="20px" stroke="none" fill="black" >getResourceRequest(file1)</text>
<text transform="translate(3.2057,-4.1324) scale(1,-1) scale(0.0069444) " font-family="Helvetica,sans-serif" font-size="20px" stroke="none" fill="black" > </text>
<line x1="4.425" y1="-3.5" x2="4.425" y2="-4.25" stroke-width="0.0094118" />
<line x1="4.525" y1="-3.5" x2="4.525" y2="-4.25" stroke-width="0.0094118" />
<line x1="4.425" y1="-4.25" x2="4.525" y2="-4.25" stroke-width="0.0094118" />
<line x1="4.475" y1="-4.25" x2="4.475" y2="-4.5" stroke-width="0.0094118" stroke-dasharray="0.05, 0.05" />
<line x1="4.425" y1="-4.5" x2="4.525" y2="-4.5" stroke-width="0.0094118" />
<line x1="2.035" y1="-4.75" x2="4.415" y2="-4.75" stroke-width="0.0094118" />
<polygon points="4.315,-4.725 4.415,-4.75 4.315,-4.775 " stroke-width="0.0094118" fill="black" />
<text transform="translate(2.1019,-4.7157) scale(1,-1) scale(0.0069444) " font-family="Helvetica,sans-serif" font-size="20px" stroke="none" fill="black" >getResourceResponse(file1Content)</text>
<text transform="translate(3.2057,-4.8824) scale(1,-1) scale(0.0069444) " font-family="Helvetica,sans-serif" font-size="20px" stroke="none" fill="black" > </text>
<line x1="1.925" y1="-3.5" x2="1.925" y2="-5" stroke-width="0.0094118" />
<line x1="2.025" y1="-3.5" x2="2.025" y2="-5" stroke-width="0.0094118" />
<line x1="1.925" y1="-5" x2="2.025" y2="-5" stroke-width="0.0094118" />
<line x1="4.415" y1="-5.25" x2="3.285" y2="-5.25" stroke-width="0.0094118" />
<polygon points="3.385,-5.275 3.285,-5.25 3.385,-5.225 " stroke-width="0.0094118" fill="black" />
<text transform="translate(2.7269,-5.2157) scale(1,-1) scale(0.0069444) " font-family="Helvetica,sans-serif" font-size="20px" stroke="none" fill="black" >getResourceResponse(file1Content)</text>
<text transform="translate(3.8307,-5.3824) scale(1,-1) scale(0.0069444) " font-family="Helvetica,sans-serif" font-size="20px" stroke="none" fill="black" > </text>
<line x1="4.425" y1="-4.5" x2="4.425" y2="-5.5" stroke-width="0.0094118" />
<line x1="4.525" y1="-4.5" x2="4.525" y2="-5.5" stroke-width="0.0094118" />
<line x1="4.425" y1="-5.5" x2="4.525" y2="-5.5" stroke-width="0.0094118" />
<line x1="3.165" y1="-5.75" x2="1.01" y2="-5.75" stroke-width="0.0094118" />
<polygon points="1.11,-5.775 1.01,-5.75 1.11,-5.725 " stroke-width="0.0094118" fill="black" />
<text transform="translate(1.2692,-5.7157) scale(1,-1) scale(0.0069444) " font-family="Helvetica,sans-serif" font-size="20px" stroke="none" fill="black" >file1 has changed, refresh!</text>
<text transform="translate(2.0682,-5.8824) scale(1,-1) scale(0.0069444) " font-family="Helvetica,sans-serif" font-size="20px" stroke="none" fill="black" > </text>
<line x1="0.15" y1="-0.3" x2="0.15" y2="-6" stroke-width="0.0094118" stroke-dasharray="0.05, 0.05" />
<line x1="0.95" y1="-0.3" x2="0.95" y2="-6" stroke-width="0.0094118" stroke-dasharray="0.05, 0.05" />
<line x1="1.975" y1="-5" x2="1.975" y2="-6" stroke-width="0.0094118" stroke-dasharray="0.05, 0.05" />
<line x1="3.175" y1="-2.25" x2="3.175" y2="-6" stroke-width="0.0094118" />
<line x1="3.275" y1="-2.25" x2="3.275" y2="-6" stroke-width="0.0094118" />
<line x1="3.175" y1="-6" x2="3.275" y2="-6" stroke-width="0.0094118" />
<line x1="4.475" y1="-5.5" x2="4.475" y2="-6" stroke-width="0.0094118" stroke-dasharray="0.05, 0.05" />
</g>
</svg>
